HIERARCHY
ROOT pelvis
{
  OFFSET 0 100 0
  CHANNELS 6 Xposition Yposition Zposition Zrotation Xrotation Yrotation
  JOINT pelvis_right_femur
  {
    OFFSET -10.78128 -3.44521 -0.5502486
    CHANNELS 3 Zrotation Xrotation Yrotation
    JOINT right_femur_tibia
    {
      OFFSET -0.8047443 -44.0398 -0.1307829
      CHANNELS 3 Zrotation Xrotation Yrotation
      JOINT right_tibia_foot
      {
        OFFSET 3.006224 -47.83518 -5
        CHANNELS 3 Zrotation Xrotation Yrotation
        End Site
        {
          OFFSET 0 -5 15
        }
      }
    }
  }
  JOINT pelvis_left_femur
  {
    OFFSET 10.78128 -3.44521 -0.5502486
    CHANNELS 3 Zrotation Xrotation Yrotation
    JOINT left_femur_tibia
    {
      OFFSET 0.8047443 -44.0398 -0.1307829
      CHANNELS 3 Zrotation Xrotation Yrotation
      JOINT left_tibia_foot
      {
        OFFSET -4.370144 -48.10324 -4.275266
        CHANNELS 3 Zrotation Xrotation Yrotation
        End Site
        {
          OFFSET 0 -5 15
        }
      }
    }
  }
  JOINT pelvis_spine1
  {
    OFFSET 0 6.468898 -3.129235
    CHANNELS 3 Zrotation Xrotation Yrotation
    JOINT spine1
    {
      OFFSET 0 23.15396 4.99043
      CHANNELS 3 Zrotation Xrotation Yrotation
      JOINT spine2
      {
        OFFSET 0 20.79997 -5.064912
        CHANNELS 3 Zrotation Xrotation Yrotation
        JOINT neck
        {
          OFFSET 0 14.38658 9.616178
          CHANNELS 3 Zrotation Xrotation Yrotation
          End Site
          {
            OFFSET 0 20 0
          }
        }
      }
      JOINT right_manubrium
      {
        OFFSET -5.722621 16.35077 3.967754
        CHANNELS 3 Zrotation Xrotation Yrotation
        JOINT right_clavicle
        {
          OFFSET -13.16364 1.694482 -4.693211
          CHANNELS 3 Zrotation Xrotation Yrotation
          JOINT right_humerus
          {
            OFFSET -28.5034 -0.3100689 -2.792744
            CHANNELS 3 Zrotation Xrotation Yrotation
            JOINT right_radius
            {
              OFFSET -25.15693 0.02248979 -1.271978
              CHANNELS 3 Zrotation Xrotation Yrotation
              End Site
              {
                OFFSET -15 0 0
              }
            }
          }
        }
      }
      JOINT left_manubrium
      {
        OFFSET 5.722621 16.35077 3.967754
        CHANNELS 3 Zrotation Xrotation Yrotation
        JOINT left_clavicle
        {
          OFFSET 13.16364 1.694482 -4.693211
          CHANNELS 3 Zrotation Xrotation Yrotation
          JOINT left_humerus
          {
            OFFSET 29.39168 -1.063119 -2.237045
            CHANNELS 3 Zrotation Xrotation Yrotation
            JOINT left_radius
            {
              OFFSET 24.59957 -0.9528479 0.9047498
              CHANNELS 3 Zrotation Xrotation Yrotation
              End Site
              {
                OFFSET 15 -0 -0
              }
            }
          }
        }
      }
    }
  }
}
MOTION
Frames: 13
Frame Time: 0.0416666666667
58.28169 103.9698 267.9232 4.702405 -9.73872 7.630791 -2.679485 11.5186 5.136977 -0 51.86183 -0 6.392689 -7.954514 -4.408927 -6.547871 -6.226044 -10.12222 -0 24.96426 -0 -7.294117 -9.410274 17.41575 -2.619762 -1.540697 7.101762 -2.127994 8.845928 -2.712334 2.06822 23.15267 5.810787 1.11047 -14.89006 8.448693 1.682192 -17.94829 9.919641 85.7231 21.29191 -11.50401 -0 0 20.45362 -24.57349 13.68519 11.90006 4.153734 -13.21961 -3.650483 -90.6092 25.28768 20.86714 0 0 -9.607655 -3.934858 6.28238 17.74007
59.80845 105.3414 273.5793 4.636944 -10.03525 8.930288 -2.227801 4.743301 4.107019 -0 53.3707 -0 5.58708 -7.888335 -5.550191 -6.685495 -0.4868712 -10.44099 -0 23.24527 -0 -7.135641 -10.7759 16.72513 -2.538884 -1.00629 5.719769 -1.827304 8.766758 -3.487808 1.927454 23.59245 5.995776 0.834762 -14.59988 8.781107 1.823393 -16.94444 9.720177 87.20675 21.76039 -13.19267 -0 0 18.45043 -23.63943 13.73118 11.33167 4.216212 -14.24371 -4.015723 -88.4644 25.75313 17.13116 0 0 -11.50334 -3.177671 6.757264 16.82179
61.23732 106.3778 278.9095 4.515934 -9.955234 10.37175 -1.897802 -2.11385 3.353632 -0 50.88875 -0 4.713148 -7.843016 -6.47613 -6.557943 4.883969 -10.69989 -0 20.94531 -0 -7.079669 -12.11948 15.92224 -2.468372 -0.600938 4.317384 -1.445299 8.551916 -4.462461 1.916851 23.94551 6.095672 0.635702 -14.32514 9.102137 1.579325 -15.92438 9.365139 88.65255 22.14179 -14.93988 -0 0 16.75104 -22.71688 13.684 10.81936 4.484115 -15.34383 -4.378143 -86.26462 26.09007 13.07173 0 0 -13.83161 -2.330829 7.300046 15.70416
62.58643 106.819 284.1298 4.447541 -9.518057 11.91397 -1.859042 -8.455533 2.878735 -0 44.84712 -0 3.759526 -7.735079 -7.235293 -6.346249 9.694728 -10.94277 -0 18.60281 -0 -7.075462 -13.54678 15.0332 -2.534408 -0.3691901 3.081025 -1.019578 8.206151 -5.511654 2.074147 24.14926 6.054319 0.5406191 -14.12852 9.360533 1.019765 -14.86413 8.888345 89.93844 22.40488 -16.7144 -0 0 15.21862 -21.82641 13.53285 10.30092 4.942317 -16.48042 -4.683802 -84.10124 26.28882 8.913942 0 0 -16.46449 -1.427429 7.898637 14.41183
63.87611 106.5817 289.4073 4.466115 -8.865795 13.35447 -2.130605 -13.87643 2.518194 -0 36.53018 -0 2.689133 -7.810973 -7.899289 -6.177464 13.92513 -11.12138 -0 16.84721 -0 -7.093811 -15.07721 14.14506 -2.734191 -0.2615808 2.161071 -0.5998807 7.784957 -6.412768 2.342949 24.20339 5.876903 0.5273491 -14.06555 9.510564 0.3616154 -13.767 8.431406 91.01881 22.58362 -18.45356 -0 0 13.60803 -20.92562 13.30843 9.679943 5.501458 -17.63612 -4.865502 -82.06991 26.35016 4.897755 0 0 -19.21046 -0.470013 8.540727 12.9929
65.11264 105.7563 294.8348 4.524178 -8.158233 14.46357 -2.513361 -18.17086 2.125795 -0 27.5625 -0 1.506751 -8.238412 -8.5031 -6.077906 17.58046 -11.18643 -0 16.11092 -0 -7.155212 -16.57398 13.3442 -2.979304 -0.2094314 1.599908 -0.2154647 7.353209 -7.014811 2.640755 24.15522 5.609186 0.5583308 -14.1488 9.540903 -0.1953531 -12.6864 8.104755 91.90103 22.72653 -20.07084 -0 0 11.77086 -19.96528 13.04715 8.90351 6.052603 -18.7745 -4.884868 -80.27487 26.29434 1.257095 0 0 -21.839 0.5266456 9.199407 11.52346
66.2741 104.5847 300.4511 4.522152 -7.555941 15.17789 -2.579372 -21.2292 1.683042 -0 19.90391 -0 0.277761 -8.986419 -9.029045 -5.958106 20.62951 -11.12997 -0 16.68428 -0 -7.327934 -17.718 12.71265 -3.119677 -0.157905 1.329472 0.1244279 6.975752 -7.267211 2.883467 24.08947 5.319698 0.5931539 -14.35013 9.471002 -0.4994703 -11.72099 7.956947 92.62559 22.87919 -21.4498 -0 0 9.690119 -18.90381 12.78294 7.973969 6.476178 -19.81313 -4.735556 -78.85068 26.16564 -1.740308 0 0 -24.05671 1.518086 9.832923 10.11581
67.34531 103.3573 306.3506 4.373536 -7.166905 15.65443 -2.089563 -22.90784 1.501179 -0 15.02786 -0 -0.8984577 -9.67834 -9.425147 -5.628558 23.01011 -11.03548 -0 18.78285 -0 -7.662499 -18.12578 12.32232 -3.059444 -0.1819125 1.167234 0.42119 6.689134 -7.291668 3.061284 24.06815 5.030165 0.6262519 -14.63048 9.323667 -0.5708984 -10.91836 7.91445 93.24594 23.04686 -22.50672 -0 0 7.548047 -17.76466 12.52659 6.979615 6.724301 -20.57955 -4.448871 -77.95091 26.04594 -3.827024 0 0 -25.59871 2.434946 10.41039 8.882402
68.34668 102.3494 312.6708 4.043894 -7.067479 16.1326 -1.001151 -23.05231 1.899591 -0 13.63247 -0 -1.937457 -9.934397 -9.627022 -4.944299 24.57017 -10.99151 -0 22.6133 -0 -8.148675 -17.49273 12.27595 -2.763041 -0.3706851 0.9507569 0.6725499 6.521856 -7.249614 3.197041 24.13478 4.737458 0.6677655 -14.94659 9.116728 -0.5082576 -10.31535 7.876264 93.77408 23.21816 -23.15733 -0 0 5.623462 -16.61584 12.27451 6.046832 6.78831 -20.89004 -4.075999 -77.71401 26.02539 -4.773034 0 0 -26.238 3.196401 10.91514 7.927963
69.31983 101.7857 319.3877 3.621491 -7.331786 16.47676 0.4297071 -21.61054 2.755882 -0 14.70221 -0 -2.867512 -9.891426 -9.626746 -4.089857 24.90854 -10.92097 -0 28.36548 -0 -8.621608 -15.86342 12.76049 -2.291244 -0.638762 0.7462487 0.8598488 6.524765 -7.174906 3.29714 24.32026 4.442712 0.7199576 -15.2465 8.857921 -0.4057231 -10.0149 7.826129 94.07677 23.39812 -23.26212 -0 0 4.212918 -15.57031 12.00497 5.300123 6.675448 -20.67554 -3.683648 -78.20304 26.15921 -4.479924 0 0 -25.82668 3.722472 11.3482 7.333856
70.28488 101.7865 326.2906 3.229989 -7.990822 16.39055 1.864606 -18.66373 3.75554 -0 16.79766 -0 -3.737857 -9.879011 -9.450873 -3.365908 23.63421 -10.69637 -0 35.75662 -0 -8.911653 -13.61421 13.84674 -1.766115 -0.796593 0.7000899 0.9746112 6.727143 -7.031799 3.367376 24.63541 4.158572 0.7834854 -15.49127 8.570214 -0.2946621 -10.11195 7.804197 94.00963 23.60082 -22.7284 -0 0 3.470363 -14.72954 11.70007 4.815155 6.38322 -20.03533 -3.350593 -79.36867 26.42774 -3.057262 0 0 -24.36899 3.967907 11.71753 7.123656
71.22256 102.2844 333.0253 3.04868 -8.992309 15.88803 2.986836 -14.42332 4.544547 -0 18.43398 -0 -4.568971 -10.28224 -9.139907 -3.082173 20.40514 -10.24065 -0 43.7815 -0 -8.851976 -11.43756 15.41915 -1.374763 -0.5847841 0.9832753 1.021113 7.116526 -6.740954 3.422602 25.06602 3.909546 0.8621686 -15.66016 8.301366 -0.136964 -10.66869 7.889209 93.46056 23.83521 -21.53216 -0 0 3.386022 -14.1832 11.34578 4.622244 5.902884 -19.24586 -3.170332 -81.03434 26.74269 -0.8344833 0 0 -22.0315 3.926788 12.03007 7.257487
72.11726 103.1438 339.3431 3.152924 -10.08845 15.14084 3.600702 -9.238295 4.974644 -0 18.84125 -0 -5.295802 -11.08277 -8.711962 -3.205776 15.39472 -9.686268 -0 50.97261 -0 -8.455376 -9.685523 17.19766 -1.248299 -0.049263 1.609031 0.9756669 7.583857 -6.268866 3.48227 25.53836 3.692621 0.9606338 -15.77512 8.065021 0.04617517 -11.57544 8.084587 92.5176 24.06091 -19.79655 -0 0 3.860805 -13.98254 10.94385 4.732192 5.337982 -18.47892 -3.119216 -83.03905 26.99995 1.917768 0 0 -19.10218 3.652429 12.28872 7.638501
